<svg height="512" viewBox="0 0 512 512" width="512" xmlns="http://www.w3.org/2000/svg"><g id="filled_outline" data-name="filled outline"><path d="m240 136h32v56h-32z" fill="#3474a6"/><path d="m240 136h32v16h-32z" fill="#2e6792"/><circle cx="256" cy="248" fill="none" r="32" stroke="#000" stroke-linecap="round" stroke-linejoin="round" stroke-width="2"/><path d="m384 208h-78.083a63.911 63.911 0 0 0 -99.834 0h-78.083v80h78.083a63.911 63.911 0 0 0 99.834 0h78.083z" fill="#3a82ba"/><path d="m256 184a63.846 63.846 0 0 0 -49.917 24h-78.083v64h78.083a63.911 63.911 0 0 0 99.834 0h78.083v-64h-78.083a63.846 63.846 0 0 0 -49.917-24z" fill="#3e8cc7"/><path d="m392 312h80v128h-80z" fill="#d9d9d9"/><path d="m488 312h-112v-120h48a64 64 0 0 1 64 64z" fill="#cdcdcd"/><path d="m464 256h-16a24.027 24.027 0 0 0 -24-24v-16a40.047 40.047 0 0 1 40 40z" fill="#d9d9d9"/><path d="m40 304h80v136h-80z" fill="#d9d9d9"/><rect fill="#3e8cc7" height="32" rx="16" width="176" x="168" y="104"/><g fill="#bef5fa"><path d="m288 64h16v16h-16z"/><path d="m320 64h16v16h-16z"/><path d="m240 64h32v16h-32z"/><path d="m184 160h16v16h-16z"/></g><path d="m64 304h16v48h-16z" fill="#ebebeb"/><path d="m64 312h16v40h-16z" fill="#ebebeb"/><path d="m64 368h16v16h-16z" fill="#ebebeb"/><path d="m344 232h32v16h-32z" fill="#69b9e7"/><path d="m312 232h16v16h-16z" fill="#69b9e7"/><path d="m448 272h16v16h-16z" fill="#d9d9d9"/><path d="m24 312h112v-120h-48a64 64 0 0 0 -64 64z" fill="#cdcdcd"/><path d="m392 312h80v16h-80z" fill="#c6c6c6"/><path d="m40 312h80v16h-80z" fill="#c6c6c6"/><path d="m64 312h16v16h-16z" fill="#ccc"/><path d="m256 288a40 40 0 1 0 -40-40 40.047 40.047 0 0 0 40 40zm0-64a24 24 0 1 1 -24 24 24.027 24.027 0 0 1 24-24z"/><path d="m448 256h16a40.047 40.047 0 0 0 -40-40v16a24.027 24.027 0 0 1 24 24z"/><path d="m128 440v-120h8a8 8 0 0 0 8-8v-16h58.383a71.891 71.891 0 0 0 107.234 0h58.383v16a8 8 0 0 0 8 8h8v120a8 8 0 0 0 8 8h80a8 8 0 0 0 8-8v-120h8a8 8 0 0 0 8-8v-56a72.079 72.079 0 0 0 -72-72h-48a8 8 0 0 0 -8 8v8h-58.383a71.651 71.651 0 0 0 -29.617-19.832v-36.168h48a24 24 0 0 0 0-48h-144a24 24 0 0 0 0 48h48v36.168a71.651 71.651 0 0 0 -29.617 19.832h-58.383v-8a8 8 0 0 0 -8-8h-48a72.079 72.079 0 0 0 -72 72v56a8 8 0 0 0 8 8h8v120a8 8 0 0 0 8 8h80a8 8 0 0 0 8-8zm336-8h-64v-112h64zm-80-232h40a56.068 56.068 0 0 1 56 56v48h-96zm-208-80a8.005 8.005 0 0 1 8-8h144a8 8 0 0 1 0 16h-144a8.005 8.005 0 0 1 -8-8zm72 24h16v32.457a70.25 70.25 0 0 0 -16 0zm-41.914 72a8.012 8.012 0 0 0 6.242-2.992 55.9 55.9 0 0 1 87.344 0 8.012 8.012 0 0 0 6.242 2.992h62.086v16h-24v16h24v32h-62.086a8.012 8.012 0 0 0 -6.242 2.992 55.9 55.9 0 0 1 -87.344 0 8.012 8.012 0 0 0 -6.242-2.992h-62.086v-64zm-174.086 40a56.068 56.068 0 0 1 56-56h40v104h-96zm80 176h-64v-112h16v32h16v-32h32z"/><path d="m288 64h16v16h-16z"/><path d="m320 64h16v16h-16z"/><path d="m240 64h32v16h-32z"/><path d="m184 160h16v16h-16z"/><path d="m64 368h16v16h-16z"/><path d="m312 232h16v16h-16z"/><path d="m448 272h16v16h-16z"/></g></svg>